<svg xmlns="http://www.w3.org/2000/svg" width="1280" height="720" viewBox="0 0 1280 720">
  <defs><linearGradient id="soilDry" x1="0" y1="0" x2="0" y2="1"><stop offset="0" stop-color="#d6b876"/><stop offset="1" stop-color="#8c603c"/></linearGradient></defs>
  <rect width="1280" height="720" fill="#d9d5bd"/><rect y="178" width="1280" height="542" fill="url(#soilDry)"/>
  <path d="M0 303 Q318 255 642 303 T1280 285 M0 557 Q309 505 635 552 T1280 532" fill="none" stroke="#69482f" stroke-width="19" opacity=".6"/>
  <g id="millet-row" fill="none" stroke-linecap="round"><path d="M210 585 Q203 408 214 226 M270 586 Q265 399 274 211 M330 584 Q329 415 339 242" stroke="#58743d" stroke-width="14"/><g fill="#d4ab46" stroke="#715226" stroke-width="5"><ellipse cx="214" cy="220" rx="25" ry="48"/><ellipse cx="274" cy="205" rx="25" ry="48"/><ellipse cx="339" cy="236" rx="25" ry="48"/></g></g>
  <g id="wheat-row" fill="none" stroke-linecap="round"><path d="M578 587 Q578 405 582 224 M640 586 Q648 397 655 211 M704 586 Q721 411 732 239" stroke="#8c7132" stroke-width="14"/><g fill="#e1bd53" stroke="#735727" stroke-width="5"><ellipse cx="582" cy="215" rx="19" ry="45"/><ellipse cx="655" cy="202" rx="19" ry="45"/><ellipse cx="732" cy="230" rx="19" ry="45"/></g></g>
  <g id="bean-row" stroke-linejoin="round"><path d="M953 586 Q950 455 955 342 M1061 586 Q1055 438 1062 326" fill="none" stroke="#3f6d3a" stroke-width="15"/><g fill="#739c52" stroke="#36562f" stroke-width="9"><path d="M952 431 Q891 378 842 427 Q895 477 952 431Z"/><path d="M957 397 Q1011 350 1054 397 Q1004 443 957 397Z"/><path d="M1058 426 Q1007 378 966 421 Q1011 469 1058 426Z"/><path d="M1063 387 Q1117 343 1156 391 Q1108 435 1063 387Z"/></g><g fill="#a64c3f" stroke="#642e2a" stroke-width="5"><ellipse cx="927" cy="498" rx="16" ry="11"/><ellipse cx="979" cy="520" rx="16" ry="11"/><ellipse cx="1036" cy="490" rx="16" ry="11"/><ellipse cx="1091" cy="517" rx="16" ry="11"/></g></g>
</svg>
