<svg xmlns="http://www.w3.org/2000/svg" width="1280" height="720" viewBox="0 0 1280 720">
  <defs><linearGradient id="woodSupport" x1="0" y1="0" x2="1" y2="1"><stop offset="0" stop-color="#c3915d"/><stop offset="1" stop-color="#815338"/></linearGradient><radialGradient id="supportGlow"><stop offset="0" stop-color="#ffe78c" stop-opacity=".85"/><stop offset="1" stop-color="#ffe78c" stop-opacity="0"/></radialGradient></defs>
  <rect width="1280" height="720" fill="url(#woodSupport)"/>
  <path d="M0 116 Q320 76 640 121 T1280 102 M0 607 Q320 562 644 611 T1280 583" fill="none" stroke="#65432f" stroke-width="8" opacity=".34"/>
  <circle cx="640" cy="182" r="170" fill="url(#supportGlow)"/>
  <circle cx="640" cy="142" r="79" fill="#e5bd42" stroke="#4b3922" stroke-width="14"/>
  <g id="three-sealed-bundles" fill="#b79b74" stroke="#3e2f25" stroke-width="14"><path d="M161 393 Q325 329 486 394 L456 584 Q325 641 192 583Z"/><path d="M478 393 Q640 329 802 394 L772 584 Q640 641 509 583Z"/><path d="M795 393 Q957 329 1119 394 L1088 584 Q957 641 826 583Z"/></g>
  <g fill="none" stroke="#6f4531" stroke-width="13"><path d="M194 450 H454 M325 360 V610"/><path d="M511 450 H769 M640 360 V610"/><path d="M828 450 H1086 M957 360 V610"/></g>
  <g fill="#8c5a38" stroke="#3e2f25" stroke-width="9"><circle cx="325" cy="450" r="34"/><circle cx="640" cy="450" r="34"/><circle cx="957" cy="450" r="34"/></g>
</svg>
